<svg width="26" height="26" viewBox="0 0 26 26" fill="none" xmlns="http://www.w3.org/2000/svg">
<path d="M0 9C0 4.02944 4.02944 0 9 0H17C21.9706 0 26 4.02944 26 9V17C26 21.9706 21.9706 26 17 26H9C4.02944 26 0 21.9706 0 17V9Z" fill="url(#paint0_linear_80_199)"/>
<g clip-path="url(#clip0_80_199)">
<path d="M17.1587 9.18508C16.3807 8.82793 15.5596 8.57324 14.7161 8.42739C14.7084 8.42595 14.7004 8.42698 14.6934 8.43032C14.6863 8.43365 14.6805 8.43914 14.6767 8.44598C14.5648 8.64901 14.4633 8.85756 14.3725 9.07083C13.4503 8.93274 12.5326 8.93274 11.6294 9.07083C11.5474 8.87409 11.4264 8.63359 11.3204 8.44598C11.3165 8.43927 11.3106 8.43391 11.3036 8.43059C11.2966 8.42727 11.2887 8.42616 11.281 8.42739C10.4375 8.57295 9.61643 8.82765 8.8386 9.18508C8.83195 9.18793 8.82633 9.19277 8.82255 9.19894C7.26677 11.5229 6.84052 13.79 7.04959 16.0288C7.05017 16.0343 7.05187 16.0397 7.05457 16.0445C7.05727 16.0494 7.06092 16.0536 7.0653 16.057C8.09173 16.8108 9.08587 17.2684 10.0618 17.5717C10.0693 17.574 10.0774 17.5739 10.085 17.5714C10.0925 17.5689 10.0991 17.5642 10.1038 17.5579C10.3352 17.2429 10.5403 16.9094 10.7169 16.5607C10.7193 16.5559 10.7206 16.5507 10.7209 16.5453C10.7211 16.54 10.7202 16.5347 10.7183 16.5297C10.7163 16.5247 10.7133 16.5202 10.7095 16.5165C10.7057 16.5127 10.7011 16.5098 10.6961 16.508C10.3727 16.3842 10.0597 16.235 9.7599 16.0618C9.75445 16.0585 9.74988 16.054 9.74658 16.0486C9.74329 16.0432 9.74137 16.0371 9.74101 16.0308C9.74064 16.0245 9.74183 16.0182 9.74448 16.0124C9.74712 16.0067 9.75114 16.0017 9.75618 15.9979C9.81923 15.9507 9.88122 15.9021 9.9421 15.8522C9.94746 15.8478 9.95394 15.845 9.96081 15.8441C9.96768 15.8432 9.97466 15.8443 9.98097 15.8471C11.9447 16.7436 14.0708 16.7436 16.0114 15.8471C16.0177 15.8441 16.0248 15.8429 16.0317 15.8437C16.0387 15.8445 16.0453 15.8473 16.0508 15.8517C16.1109 15.9012 16.1738 15.9507 16.2372 15.9979C16.2423 16.0017 16.2463 16.0067 16.249 16.0124C16.2516 16.0181 16.2529 16.0244 16.2525 16.0307C16.2522 16.037 16.2503 16.0432 16.2471 16.0486C16.2438 16.054 16.2392 16.0585 16.2338 16.0618C15.9348 16.2364 15.6216 16.3855 15.2975 16.5075C15.2925 16.5094 15.2879 16.5123 15.2841 16.5161C15.2803 16.5199 15.2773 16.5245 15.2754 16.5295C15.2735 16.5345 15.2726 16.5399 15.2729 16.5453C15.2732 16.5506 15.2746 16.5559 15.277 16.5607C15.4566 16.9074 15.6613 17.2406 15.8895 17.5574C15.8942 17.5638 15.9007 17.5687 15.9083 17.5712C15.9158 17.5738 15.924 17.5739 15.9316 17.5716C16.9121 17.2684 17.9064 16.8107 18.9328 16.057C18.9372 16.0538 18.9409 16.0496 18.9436 16.0448C18.9463 16.0401 18.9479 16.0348 18.9484 16.0293C19.1985 13.4409 18.5292 11.1925 17.1742 9.19911C17.1708 9.19265 17.1653 9.18761 17.1585 9.18491L17.1587 9.18508ZM11.0099 14.6657C10.4189 14.6657 9.93162 14.123 9.93162 13.4562C9.93162 12.7896 10.4094 12.2468 11.0099 12.2468C11.6155 12.2468 12.098 12.7944 12.0886 13.4562C12.0886 14.123 11.6108 14.6657 11.0101 14.6657H11.0099ZM14.9975 14.6657C14.4063 14.6657 13.9192 14.123 13.9192 13.4562C13.9192 12.7896 14.3968 12.2468 14.9975 12.2468C15.6029 12.2468 16.0854 12.7944 16.0758 13.4562C16.0758 14.123 15.6029 14.6657 14.9975 14.6657Z" fill="white"/>
</g>
<defs>
<linearGradient id="paint0_linear_80_199" x1="9.31013e-08" y1="13.2281" x2="26" y2="13.2281" gradientUnits="userSpaceOnUse">
<stop stop-color="#31CCEF"/>
<stop offset="1" stop-color="#1787ED"/>
</linearGradient>
<clipPath id="clip0_80_199">
<rect width="12" height="12" fill="white" transform="translate(7 7)"/>
</clipPath>
</defs>
</svg>
