<svg width="26" height="26" viewBox="0 0 26 26" fill="none" xmlns="http://www.w3.org/2000/svg">
<path d="M0 9C0 4.02944 4.02944 0 9 0H17C21.9706 0 26 4.02944 26 9V17C26 21.9706 21.9706 26 17 26H9C4.02944 26 0 21.9706 0 17V9Z" fill="url(#paint0_linear_80_193)"/>
<path d="M11 18.526C11 18.8227 10.8637 19 10.6709 19C10.6026 19 10.5269 18.978 10.4466 18.931L7.33257 17.091C7.14971 16.9833 7 16.6967 7 16.4557V7.43767C7 7.19933 7.10829 7.05867 7.26343 7.05867C7.318 7.05867 7.37943 7.07533 7.44314 7.11333L7.55257 7.17833H7.55343L10.9854 9.20567C10.9911 9.20967 10.9954 9.216 11 9.22133V18.526ZM14.596 7.62767L14.8057 7.22533C14.8806 7.082 15.0177 7 15.1571 7C15.1897 7 15.2231 7.00533 15.2557 7.01567C15.28 7.02233 15.3057 7.03233 15.3329 7.04833L18.952 9.18633C18.9531 9.18633 18.9531 9.18767 18.9531 9.18767L18.9566 9.18867C18.9586 9.19 18.9586 9.194 18.9609 9.19533C18.9789 9.212 18.9866 9.241 18.9743 9.26433L15.3694 16.1863L15.0009 16.892L12.6129 11.435L14.596 7.62767ZM11.5714 14.8683V10.5207L14.1371 16.3853L11.8291 15.022L11.5714 14.8683ZM19 18.526C19 18.8047 18.8583 18.9637 18.6494 18.9637C18.5557 18.9637 18.4486 18.9323 18.336 18.866L17.8191 18.56L15.5111 17.1967L19 10.4987V18.526Z" fill="white"/>
<defs>
<linearGradient id="paint0_linear_80_193" x1="9.31013e-08" y1="13.2281" x2="26" y2="13.2281" gradientUnits="userSpaceOnUse">
<stop stop-color="#31CCEF"/>
<stop offset="1" stop-color="#1787ED"/>
</linearGradient>
</defs>
</svg>
