<svg width="26" height="26" viewBox="0 0 26 26" fill="none" xmlns="http://www.w3.org/2000/svg">
<path d="M0 9C0 4.02944 4.02944 0 9 0H17C21.9706 0 26 4.02944 26 9V17C26 21.9706 21.9706 26 17 26H9C4.02944 26 0 21.9706 0 17V9Z" fill="url(#paint0_linear_80_202)"/>
<path d="M7.80353 13.2556L7.76448 11.8742C7.4959 11.9766 7.33813 12.1064 7.24896 12.2372C7.15925 12.3675 7.14079 12.4937 7.14342 12.5828C7.14554 12.672 7.17139 12.7971 7.26795 12.9221C7.36504 13.0472 7.52967 13.1685 7.80353 13.2556ZM17.5905 8.12307L7.76448 11.8742L7.82885 13.2081L7.81461 13.2588L9.82657 13.8344L10.9199 16.9608L10.9695 16.9434L10.9199 16.9608C11.0761 17.4072 11.4301 17.6927 11.8501 17.6927C12.1129 17.6927 12.3694 17.5819 12.5904 17.3787L13.8178 16.2485L15.6102 17.6921L15.6129 17.6943L15.6287 17.7069L15.6297 17.7074L15.6319 17.7096L15.6345 17.7117C15.8456 17.8752 16.0777 17.9634 16.3083 17.9634C16.7626 17.9634 17.1172 17.6267 17.2191 17.1228L18.8295 9.17258C18.896 8.84279 18.8416 8.53939 18.6659 8.32463C18.5129 8.13784 18.2849 8.03653 18.0269 8.03653C17.8774 8.0386 17.7295 8.06792 17.5905 8.12307ZM14.0447 15.4222L12.8574 14.4671L16.3595 10.7455C16.4228 10.6781 16.4604 10.5905 16.4655 10.4981C16.4706 10.4058 16.443 10.3146 16.3875 10.2406C16.3319 10.1666 16.252 10.1146 16.1618 10.0938C16.0717 10.0729 15.9771 10.0845 15.8946 10.1266L10.0893 13.092L8.19505 12.5506L17.8707 8.85704C17.9203 8.83614 17.9732 8.82434 18.0269 8.82221C18.0377 8.82229 18.0485 8.82352 18.0591 8.82591C18.0617 8.83118 18.067 8.8449 18.0696 8.86917C18.0737 8.91867 18.0702 8.9685 18.0591 9.01692L16.4492 16.9666C16.4399 17.0153 16.4236 17.0625 16.4007 17.1064C16.3743 17.1539 16.3437 17.1777 16.3088 17.1777C16.2629 17.1777 16.1954 17.1513 16.1189 17.0922H16.1178L14.0478 15.4248L14.0441 15.4222H14.0447ZM10.6138 13.7067L14.2346 11.8568L11.9947 14.237C11.9483 14.2862 11.9154 14.3466 11.8992 14.4122L11.4697 16.153L10.6138 13.7073V13.7067ZM12.1367 16.7286L12.5139 15.199L13.1988 15.7504L12.1367 16.7286Z" fill="white" stroke="white" stroke-width="0.2"/>
<defs>
<linearGradient id="paint0_linear_80_202" x1="9.31013e-08" y1="13.2281" x2="26" y2="13.2281" gradientUnits="userSpaceOnUse">
<stop stop-color="#31CCEF"/>
<stop offset="1" stop-color="#1787ED"/>
</linearGradient>
</defs>
</svg>
