<svg width="26" height="26" viewBox="0 0 26 26" fill="none" xmlns="http://www.w3.org/2000/svg">
<path d="M0 9C0 4.02944 4.02944 0 9 0H17C21.9706 0 26 4.02944 26 9V17C26 21.9706 21.9706 26 17 26H9C4.02944 26 0 21.9706 0 17V9Z" fill="url(#paint0_linear_80_196)"/>
<path fill-rule="evenodd" clip-rule="evenodd" d="M14.605 9.32635C14.3473 9.32616 14.0927 9.3812 13.8597 9.48749C13.6268 9.59378 13.4211 9.74866 13.2577 9.94096C13.0943 10.1333 12.9772 10.3582 12.9149 10.5994C12.8525 10.8407 12.8464 11.0924 12.8971 11.3362C12.9146 11.4206 12.911 11.5078 12.8867 11.5906C12.8625 11.6734 12.8182 11.7495 12.7575 11.8126C12.6968 11.8757 12.6215 11.924 12.5378 11.9536C12.454 11.9832 12.3641 11.9932 12.2756 11.9827C11.0628 11.839 9.91954 11.3579 8.98512 10.5982C9.0026 10.9258 9.12048 11.2741 9.37598 11.6388L9.75952 12.1852L9.13007 12.4437L9.00881 12.4937C9.09905 12.5933 9.20734 12.6951 9.32861 12.7958C9.49048 12.9297 9.6625 13.0527 9.84186 13.1637L9.84807 13.1675H9.84863L10.7217 13.6785L9.80802 14.1194C9.7629 14.1411 9.71778 14.1607 9.67266 14.1781C9.86893 14.336 10.0855 14.4682 10.3168 14.5732L11.1007 14.9308L10.4442 15.4772C10.0861 15.7754 9.72567 15.998 9.2581 16.1156C9.97506 16.484 10.7752 16.676 11.5875 16.6745C14.2982 16.6745 16.4809 14.5874 16.4809 12.0301V11.7471L16.7206 11.5838C17.0951 11.3307 17.3596 10.9879 17.5497 10.5955H16.3314L16.1775 10.2853C16.0362 9.99829 15.8135 9.75585 15.5351 9.58611C15.2568 9.41638 14.9343 9.3263 14.605 9.32635ZM8.24287 13.2992C8.18955 13.358 8.14996 13.4271 8.1268 13.502C8.10364 13.5768 8.09744 13.6556 8.10864 13.733C8.17237 14.1683 8.44254 14.5438 8.74146 14.8312C8.82268 14.909 8.90954 14.9836 9.00091 15.0543L8.95861 15.0652C8.68788 15.1305 8.32127 15.1447 7.71213 15.087C7.59683 15.0758 7.48077 15.0992 7.37972 15.1539C7.27867 15.2087 7.19755 15.2921 7.14739 15.3929C7.09722 15.4937 7.08045 15.6069 7.09935 15.7173C7.11825 15.8276 7.17191 15.9296 7.25302 16.0095C7.81756 16.5662 8.49195 17.0082 9.2364 17.3094C9.98085 17.6105 10.7803 17.7647 11.5875 17.763C14.8097 17.763 17.4533 15.3488 17.6022 12.3022C18.3298 11.7128 18.6935 10.9144 18.8898 10.1889C18.9116 10.1084 18.914 10.0242 18.8968 9.94261C18.8796 9.86106 18.8432 9.7844 18.7905 9.71854C18.7378 9.65268 18.6701 9.59937 18.5926 9.5627C18.5152 9.52603 18.4301 9.50699 18.3439 9.50703H17.0167C16.6922 9.02045 16.2178 8.64424 15.6602 8.4313C15.1026 8.21836 14.4898 8.17939 13.9081 8.31987C13.3263 8.46036 12.8048 8.77323 12.4169 9.2145C12.029 9.65577 11.7942 10.2033 11.7454 10.78C10.7059 10.5187 9.77591 9.9531 9.08326 9.1609C9.02192 9.09078 8.9432 9.03676 8.85442 9.00387C8.76565 8.97098 8.66969 8.96028 8.57548 8.97277C8.48126 8.98526 8.39185 9.02053 8.31556 9.07531C8.23926 9.13009 8.17856 9.20259 8.13909 9.28608C7.7973 10.0055 7.73187 10.8349 8.11315 11.6785L7.98117 11.7329C7.85487 11.7848 7.75254 11.8794 7.69335 11.999C7.63417 12.1185 7.6222 12.2547 7.65968 12.3822C7.76459 12.737 8.00035 13.0505 8.24175 13.2992H8.24231H8.24287Z" fill="white"/>
<defs>
<linearGradient id="paint0_linear_80_196" x1="9.31013e-08" y1="13.2281" x2="26" y2="13.2281" gradientUnits="userSpaceOnUse">
<stop stop-color="#31CCEF"/>
<stop offset="1" stop-color="#1787ED"/>
</linearGradient>
</defs>
</svg>
